<?xml version="1.0" encoding="UTF-8" standalone="no"?>
<!-- Created with Inkscape (http://www.inkscape.org/) -->

<svg
   xmlns:dc="http://purl.org/dc/elements/1.1/"
   xmlns:cc="http://creativecommons.org/ns#"
   xmlns:rdf="http://www.w3.org/1999/02/22-rdf-syntax-ns#"
   xmlns:svg="http://www.w3.org/2000/svg"
   xmlns="http://www.w3.org/2000/svg"
   xmlns:sodipodi="http://sodipodi.sourceforge.net/DTD/sodipodi-0.dtd"
   xmlns:inkscape="http://www.inkscape.org/namespaces/inkscape"
   id="svg2"
   version="1.1"
   inkscape:version="0.48.4 r9939"
   width="541.48438"
   height="344.14062"
   xml:space="preserve"
   sodipodi:docname="ink_ext_XXXXXX.svgGR18MY"><sodipodi:namedview
     pagecolor="#ffffff"
     bordercolor="#666666"
     borderopacity="1"
     objecttolerance="10"
     gridtolerance="10"
     guidetolerance="10"
     inkscape:pageopacity="0"
     inkscape:pageshadow="2"
     inkscape:window-width="1920"
     inkscape:window-height="1056"
     id="namedview4"
     showgrid="false"
     inkscape:zoom="1.3715323"
     inkscape:cx="447.79334"
     inkscape:cy="122.69781"
     inkscape:window-x="0"
     inkscape:window-y="24"
     inkscape:window-maximized="1"
     inkscape:current-layer="g10" /><metadata
     id="metadata8"><rdf:RDF><cc:Work
         rdf:about=""><dc:format>image/svg+xml</dc:format><dc:type
           rdf:resource="http://purl.org/dc/dcmitype/StillImage" /></cc:Work></rdf:RDF></metadata><defs
     id="defs6" /><g
     id="g10"
     inkscape:groupmode="layer"
     inkscape:label="fig_complement2b"
     transform="matrix(1.25,0,0,-1.25,0,344.14062)"><path
       inkscape:connector-curvature="0"
       id="path14"
       style="fill:#fefcfb;fill-opacity:1;fill-rule:evenodd;stroke:#000000;stroke-width:1;stroke-linecap:butt;stroke-linejoin:miter;stroke-miterlimit:4;stroke-opacity:1;stroke-dasharray:none"
       d="m 0.508,274.805 432.176,0 0,-274.316 -432.176,0 0,274.316 z" /><path
       inkscape:connector-curvature="0"
       id="path16"
       style="fill:#e6e6e6;fill-opacity:1;fill-rule:evenodd;stroke:#000000;stroke-width:0.80000001;stroke-linecap:butt;stroke-linejoin:miter;stroke-miterlimit:4;stroke-opacity:1;stroke-dasharray:none"
       d="m 412.328,135.387 c 0,-66.907 -54.242,-121.141 -121.148,-121.141 -66.907,0 -121.145,54.234 -121.145,121.141 0,66.906 54.238,121.144 121.145,121.144 66.906,0 121.148,-54.238 121.148,-121.144 z" /><text
       id="text18"
       transform="scale(1,-1)"
       x="411.43109"
       y="-254.6953"><tspan
         id="tspan20"
         y="-254.6953"
         x="411.43109"
         style="font-size:22.39999962px;font-variant:normal;font-weight:normal;writing-mode:lr-tb;fill:#000000;fill-opacity:1;fill-rule:nonzero;stroke:none;font-family:Liberation Serif;-inkscape-font-specification:LiberationSerif">U</tspan></text>
<path
       inkscape:connector-curvature="0"
       id="path22"
       style="fill:#ffffff;fill-opacity:0.86772503;fill-rule:evenodd;stroke:none"
       d="M 138.09375 14.28125 C 106.10169 14.894544 74.927454 29.278398 52.822052 52.259492 C 42.310701 62.562575 31.813852 73.505553 25.829817 87.167926 C 19.444037 101.41024 18.696625 117.39497 19.585084 132.75984 C 20.323533 149.35975 22.658747 166.13531 29.187816 181.53487 C 40.280876 208.32807 61.168964 231.18178 87.405158 243.72975 C 106.07037 252.56565 126.9252 256.1202 147.47938 255.87227 C 168.64747 255.35834 189.56157 248.6456 207.20414 236.96369 C 232.51341 220.45443 251.52728 194.31362 258.69333 164.88861 C 266.65725 133.2997 261.35716 98.483238 243.77615 70.985596 C 227.87518 45.552234 202.2067 26.39222 173.23003 18.5741 C 161.81616 15.437179 149.92978 13.941136 138.09375 14.28125 z " /><path
       inkscape:connector-curvature="0"
       id="path24"
       style="fill:none;stroke:#000000;stroke-width:0.80000001;stroke-linecap:butt;stroke-linejoin:miter;stroke-miterlimit:4;stroke-opacity:1;stroke-dasharray:none"
       d="m 262.344,135.387 c 0,-66.907 -54.239,-121.141 -121.145,-121.141 -66.906,0 -121.144,54.234 -121.144,121.141 0,66.906 54.238,121.144 121.144,121.144 66.906,0 121.145,-54.238 121.145,-121.144 z" /><path
       inkscape:connector-curvature="0"
       id="path26"
       style="fill:#000000;fill-opacity:1;fill-rule:evenodd;stroke:none"
       d="m 87.16,227.852 0.008,0.027 0.008,0.023 0.012,0.059 0.015,0.055 0.008,0.046 0.016,0.051 0.015,0.032 0.016,0.043 0.008,0.05 0.043,0.102 0.011,0.027 0.016,0.024 0.012,0.031 0.015,0.023 0.024,0.047 0.015,0.016 0.036,0.039 0.011,0.015 0.016,0.016 0.019,0.012 0.012,0.008 0.02,0.011 0.027,0.02 0.012,0.008 0.027,0.008 0.035,0.007 0.031,0.008 0.02,0.012 c 0.203,0.051 0.937,0.051 1.402,0.051 2.239,0 3.239,-0.094 3.239,-1.828 0,-0.325 -0.086,-1.196 -0.176,-1.774 -0.024,-0.082 -0.071,-0.355 -0.071,-0.418 0,-0.137 0.071,-0.293 0.266,-0.293 0.25,0 0.289,0.184 0.332,0.516 l 0.602,3.859 c 0.027,0.09 0.047,0.313 0.047,0.379 0,0.242 -0.223,0.242 -0.602,0.242 l -12.32,0 c -0.535,0 -0.555,-0.027 -0.711,-0.445 l -1.328,-3.899 c -0.024,-0.054 -0.133,-0.359 -0.133,-0.406 0,-0.136 0.109,-0.246 0.265,-0.246 0.223,0 0.247,0.11 0.375,0.469 1.2,3.437 1.774,3.844 5.063,3.844 l 0.863,0 c 0.625,0 0.625,-0.094 0.625,-0.274 0,-0.133 -0.07,-0.394 -0.09,-0.465 l -2.972,-11.855 c -0.203,-0.817 -0.27,-1.059 -2.649,-1.059 -0.797,0 -0.925,0 -0.925,-0.425 0,-0.27 0.238,-0.27 0.371,-0.27 0.609,0 1.226,0.047 1.82,0.047 0.625,0 1.273,0.031 1.891,0.031 0.617,0 1.238,-0.031 1.847,-0.031 0.637,0 1.309,-0.047 1.93,-0.047 0.223,0 0.484,0 0.484,0.449 0,0.246 -0.175,0.246 -0.758,0.246 -0.554,0 -0.839,0 -1.414,0.039 -0.648,0.071 -0.82,0.133 -0.82,0.489 0,0.027 0,0.14 0.078,0.468 l 2.961,11.786 z" /><path
       inkscape:connector-curvature="0"
       id="path28"
       style="fill:none;stroke:#000000;stroke-width:0.80000001;stroke-linecap:butt;stroke-linejoin:miter;stroke-miterlimit:4;stroke-opacity:1;stroke-dasharray:none"
       d="m 412.707,135.559 c 0,-66.907 -54.242,-121.141 -121.145,-121.141 -66.906,0 -121.148,54.234 -121.148,121.141 0,66.906 54.242,121.144 121.148,121.144 66.903,0 121.145,-54.238 121.145,-121.144 z" /><path
       inkscape:connector-curvature="0"
       id="path30"
       style="fill:#000000;fill-opacity:1;fill-rule:evenodd;stroke:none"
       d="m 258.555,227.648 0.011,0.028 0.004,0.027 0.012,0.055 0.016,0.054 0.011,0.047 0.016,0.051 0.012,0.031 0.015,0.043 0.008,0.051 0.043,0.102 0.012,0.027 0.015,0.024 0.012,0.031 0.016,0.023 0.023,0.047 0.016,0.016 0.035,0.039 0.012,0.015 0.015,0.016 0.02,0.012 0.016,0.011 0.019,0.008 0.024,0.02 0.011,0.008 0.028,0.007 0.039,0.008 0.027,0.008 0.019,0.012 c 0.204,0.051 0.938,0.051 1.399,0.051 2.238,0 3.238,-0.094 3.238,-1.829 0,-0.324 -0.09,-1.191 -0.176,-1.769 -0.023,-0.082 -0.07,-0.356 -0.07,-0.414 0,-0.137 0.07,-0.297 0.266,-0.297 0.25,0 0.289,0.184 0.332,0.516 l 0.597,3.855 c 0.032,0.09 0.051,0.313 0.051,0.379 0,0.242 -0.222,0.242 -0.601,0.242 l -12.309,0 c -0.535,0 -0.555,-0.027 -0.707,-0.445 l -1.328,-3.895 c -0.027,-0.054 -0.133,-0.355 -0.133,-0.406 0,-0.137 0.106,-0.246 0.266,-0.246 0.222,0 0.242,0.109 0.371,0.469 1.199,3.433 1.773,3.84 5.058,3.84 l 0.864,0 c 0.621,0 0.621,-0.094 0.621,-0.274 0,-0.133 -0.067,-0.394 -0.086,-0.461 l -2.969,-11.847 c -0.203,-0.813 -0.269,-1.055 -2.644,-1.055 -0.801,0 -0.93,0 -0.93,-0.426 0,-0.269 0.242,-0.269 0.371,-0.269 0.609,0 1.227,0.046 1.82,0.046 0.625,0 1.27,0.032 1.891,0.032 0.617,0 1.234,-0.032 1.844,-0.032 0.636,0 1.308,-0.046 1.925,-0.046 0.223,0 0.485,0 0.485,0.449 0,0.246 -0.176,0.246 -0.754,0.246 -0.555,0 -0.84,0 -1.414,0.039 -0.649,0.07 -0.82,0.133 -0.82,0.484 0,0.032 0,0.141 0.082,0.469 l 2.953,11.773 z" /><text
       id="text32"
       transform="scale(1,-1)"
       x="260.83981"
       y="-211.22546"><tspan
         id="tspan34"
         y="-211.22546"
         x="260.83981"
         style="font-size:11.86725712px;font-variant:normal;font-weight:normal;writing-mode:lr-tb;fill:#000000;fill-opacity:1;fill-rule:nonzero;stroke:none;font-family:DejaVu Sans;-inkscape-font-specification:DejaVuSans">m</tspan></text>
<text
       id="text36"
       transform="scale(1,-1)"
       x="89.446373"
       y="-211.40918"><tspan
         id="tspan38"
         y="-211.40918"
         x="89.446373"
         style="font-size:11.88042831px;font-variant:normal;font-weight:normal;writing-mode:lr-tb;fill:#000000;fill-opacity:1;fill-rule:nonzero;stroke:none;font-family:DejaVu Sans;-inkscape-font-specification:DejaVuSans">s</tspan></text>
</g></svg>